<svg width="50" height="50" viewBox="0 0 50 50" fill="none" xmlns="http://www.w3.org/2000/svg">
<rect width="50" height="50" rx="10" fill="#155DFC"/>
<path d="M26.74 18.84V19.24C26.34 19.2533 26.0333 19.3067 25.82 19.4C25.62 19.48 25.4867 19.64 25.42 19.88C25.3533 20.1067 25.32 20.4667 25.32 20.96V30.88C25.32 31.36 25.3533 31.72 25.42 31.96C25.5 32.2 25.64 32.36 25.84 32.44C26.04 32.52 26.34 32.5733 26.74 32.6V33C26.3267 32.9733 25.8 32.96 25.16 32.96C24.52 32.9467 23.8667 32.94 23.2 32.94C22.48 32.94 21.8 32.9467 21.16 32.96C20.5333 32.96 20.0267 32.9733 19.64 33V32.6C20.0933 32.5733 20.4333 32.52 20.66 32.44C20.9 32.36 21.06 32.2 21.14 31.96C21.22 31.72 21.26 31.36 21.26 30.88V20.18L21.46 20.14L16.44 32.98H16.12L10.48 20.14V29.08C10.48 29.9733 10.5133 30.66 10.58 31.14C10.66 31.6067 10.84 31.9467 11.12 32.16C11.4133 32.36 11.8733 32.5067 12.5 32.6V33C12.2333 32.9733 11.8867 32.96 11.46 32.96C11.0333 32.9467 10.6333 32.94 10.26 32.94C9.96667 32.94 9.66667 32.9467 9.36 32.96C9.05333 32.96 8.8 32.9733 8.6 33V32.6C9.01333 32.5067 9.32 32.3667 9.52 32.18C9.72 31.98 9.85333 31.6667 9.92 31.24C9.98667 30.8133 10.02 30.2267 10.02 29.48V20.96C10.02 20.4667 9.98667 20.1067 9.92 19.88C9.85333 19.64 9.71333 19.48 9.5 19.4C9.3 19.3067 9 19.2533 8.6 19.24V18.84C8.8 18.8533 9.05333 18.8667 9.36 18.88C9.66667 18.8933 9.96667 18.9 10.26 18.9C11.0333 18.9 11.7733 18.8933 12.48 18.88C13.1867 18.8667 13.8267 18.8533 14.4 18.84L18.36 27.76L17.76 28.42L21.46 18.9C21.7267 18.9 22.0133 18.9 22.32 18.9C22.6267 18.9 22.92 18.9 23.2 18.9C23.8667 18.9 24.52 18.8933 25.16 18.88C25.8 18.8667 26.3267 18.8533 26.74 18.84ZM35.4206 18.56C36.3006 18.56 37.0206 18.6933 37.5806 18.96C38.154 19.2133 38.6606 19.5133 39.1006 19.86C39.3673 20.06 39.5673 20.0867 39.7006 19.94C39.8473 19.78 39.9473 19.4133 40.0006 18.84H40.4606C40.434 19.3733 40.414 20.0267 40.4006 20.8C40.3873 21.56 40.3806 22.5733 40.3806 23.84H39.9206C39.8673 23.2 39.7806 22.6333 39.6606 22.14C39.5406 21.6333 39.3606 21.1867 39.1206 20.8C38.8806 20.4133 38.534 20.0733 38.0806 19.78C37.8006 19.5933 37.5006 19.4467 37.1806 19.34C36.874 19.2333 36.554 19.18 36.2206 19.18C35.4606 19.18 34.834 19.3933 34.3406 19.82C33.8473 20.2333 33.4606 20.78 33.1806 21.46C32.914 22.1267 32.7273 22.86 32.6206 23.66C32.514 24.4467 32.4606 25.2133 32.4606 25.96C32.4606 26.7067 32.514 27.48 32.6206 28.28C32.7273 29.0667 32.914 29.8 33.1806 30.48C33.4606 31.1467 33.8473 31.6933 34.3406 32.12C34.834 32.5333 35.4606 32.74 36.2206 32.74C36.554 32.74 36.874 32.6867 37.1806 32.58C37.5006 32.46 37.8006 32.3133 38.0806 32.14C38.7473 31.7267 39.194 31.1733 39.4206 30.48C39.6606 29.7867 39.8273 28.8933 39.9206 27.8H40.3806C40.3806 29.1067 40.3873 30.1667 40.4006 30.98C40.414 31.78 40.434 32.4533 40.4606 33H40.0006C39.9473 32.4267 39.854 32.0667 39.7206 31.92C39.6006 31.7733 39.394 31.7933 39.1006 31.98C38.6073 32.3267 38.0806 32.6333 37.5206 32.9C36.974 33.1533 36.2673 33.28 35.4006 33.28C33.894 33.28 32.574 32.9933 31.4406 32.42C30.3073 31.8467 29.4273 31.02 28.8006 29.94C28.174 28.86 27.8606 27.56 27.8606 26.04C27.8606 24.5467 28.1806 23.24 28.8206 22.12C29.474 21 30.3673 20.1267 31.5006 19.5C32.634 18.8733 33.9406 18.56 35.4206 18.56Z" fill="white"/>
</svg>
